{
    "asset" : {
        "generator" : "Khronos glTF Blender I/O v3.4.50",
        "version" : "2.0"
    },
    "scene" : 0,
    "scenes" : [
        {
            "name" : "Scene",
            "nodes" : [
                4,
                5,
                6,
                7
            ]
        }
    ],
    "nodes" : [
        {
            "mesh" : 0,
            "name" : "Blade"
        },
        {
            "name" : "Empty.002",
            "rotation" : [
                0,
                0.8660253882408142,
                0,
                0.4999999701976776
            ]
        },
        {
            "mesh" : 1,
            "name" : "Tower",
            "rotation" : [
                1,
                0,
                0,
                1.6292068494294654e-07
            ]
        },
        {
            "children" : [
                0,
                1,
                2
            ],
            "name" : "Empty.001",
            "rotation" : [
                -1,
                0,
                0,
                1.6292068494294654e-07
            ]
        },
        {
            "children" : [
                3
            ],
            "name" : "All_Geometry"
        },
        {
            "name" : "Empty",
            "rotation" : [
                0.7071068286895752,
                0,
                0,
                0.7071068286895752
            ],
            "scale" : [
                5,
                5,
                5
            ],
            "translation" : [
                1,
                0,
                -1.5
            ]
        },
        {
            "mesh" : 2,
            "name" : "Checker.4",
            "scale" : [
                0.5,
                0.5,
                0.7071067690849304
            ]
        },
        {
            "mesh" : 3,
            "name" : "ShadowCatcher",
            "scale" : [
                20.298908233642578,
                20.298908233642578,
                20.298908233642578
            ]
        }
    ],
    "animations" : [
        {
            "channels" : [
                {
                    "sampler" : 0,
                    "target" : {
                        "node" : 3,
                        "path" : "rotation"
                    }
                }
            ],
            "name" : "Empty.001Action.002",
            "samplers" : [
                {
                    "input" : 17,
                    "interpolation" : "LINEAR",
                    "output" : 18
                }
            ]
        }
    ],
    "materials" : [
        {
            "doubleSided" : true,
            "name" : "Wood",
            "pbrMetallicRoughness" : {
                "baseColorFactor" : [
                    1,
                    0.6591798663139343,
                    0.25697824358940125,
                    1
                ],
                "metallicFactor" : 0,
                "roughnessFactor" : 0.5
            }
        },
        {
            "doubleSided" : true,
            "name" : "Gray.35",
            "pbrMetallicRoughness" : {}
        }
    ],
    "meshes" : [
        {
            "name" : "Cube.001",
            "primitives" : [
                {
                    "attributes" : {
                        "POSITION" : 0,
                        "TEXCOORD_0" : 1,
                        "NORMAL" : 2
                    },
                    "indices" : 3
                }
            ]
        },
        {
            "name" : "Cube",
            "primitives" : [
                {
                    "attributes" : {
                        "POSITION" : 4,
                        "TEXCOORD_0" : 5,
                        "NORMAL" : 6
                    },
                    "indices" : 7,
                    "material" : 0
                }
            ]
        },
        {
            "name" : "Plane.002",
            "primitives" : [
                {
                    "attributes" : {
                        "POSITION" : 8,
                        "NORMAL" : 9
                    },
                    "indices" : 10
                },
                {
                    "attributes" : {
                        "POSITION" : 11,
                        "NORMAL" : 12
                    },
                    "indices" : 13,
                    "material" : 1
                }
            ]
        },
        {
            "name" : "Plane",
            "primitives" : [
                {
                    "attributes" : {
                        "POSITION" : 14,
                        "NORMAL" : 15
                    },
                    "indices" : 16
                }
            ]
        }
    ],
    "accessors" : [
        {
            "bufferView" : 0,
            "componentType" : 5126,
            "count" : 1061,
            "max" : [
                0.7414401173591614,
                -0.3222329020500183,
                0.00261690909974277
            ],
            "min" : [
                -0.9516190886497498,
                -2.4974217414855957,
                -1.0228264331817627
            ],
            "type" : "VEC3"
        },
        {
            "bufferView" : 1,
            "componentType" : 5126,
            "count" : 1061,
            "type" : "VEC2"
        },
        {
            "bufferView" : 2,
            "componentType" : 5126,
            "count" : 1061,
            "type" : "VEC3"
        },
        {
            "bufferView" : 3,
            "componentType" : 5123,
            "count" : 3336,
            "type" : "SCALAR"
        },
        {
            "bufferView" : 4,
            "componentType" : 5126,
            "count" : 1220,
            "max" : [
                0.1749889999628067,
                2.67445707321167,
                0.17498844861984253
            ],
            "min" : [
                -0.17498879134655,
                0.0006705603445880115,
                -0.17498935759067535
            ],
            "type" : "VEC3"
        },
        {
            "bufferView" : 5,
            "componentType" : 5126,
            "count" : 1220,
            "type" : "VEC2"
        },
        {
            "bufferView" : 6,
            "componentType" : 5126,
            "count" : 1220,
            "type" : "VEC3"
        },
        {
            "bufferView" : 7,
            "componentType" : 5123,
            "count" : 5532,
            "type" : "SCALAR"
        },
        {
            "bufferView" : 8,
            "componentType" : 5126,
            "count" : 287,
            "max" : [
                8,
                0,
                8
            ],
            "min" : [
                -8,
                0,
                -8
            ],
            "type" : "VEC3"
        },
        {
            "bufferView" : 9,
            "componentType" : 5126,
            "count" : 287,
            "type" : "VEC3"
        },
        {
            "bufferView" : 10,
            "componentType" : 5123,
            "count" : 768,
            "type" : "SCALAR"
        },
        {
            "bufferView" : 11,
            "componentType" : 5126,
            "count" : 287,
            "max" : [
                8,
                0,
                8
            ],
            "min" : [
                -8,
                0,
                -8
            ],
            "type" : "VEC3"
        },
        {
            "bufferView" : 12,
            "componentType" : 5126,
            "count" : 287,
            "type" : "VEC3"
        },
        {
            "bufferView" : 13,
            "componentType" : 5123,
            "count" : 768,
            "type" : "SCALAR"
        },
        {
            "bufferView" : 14,
            "componentType" : 5126,
            "count" : 4,
            "max" : [
                1,
                0,
                1
            ],
            "min" : [
                -1,
                0,
                -1
            ],
            "type" : "VEC3"
        },
        {
            "bufferView" : 15,
            "componentType" : 5126,
            "count" : 4,
            "type" : "VEC3"
        },
        {
            "bufferView" : 16,
            "componentType" : 5123,
            "count" : 6,
            "type" : "SCALAR"
        },
        {
            "bufferView" : 17,
            "componentType" : 5126,
            "count" : 26,
            "max" : [
                2.0833333333333335
            ],
            "min" : [
                0
            ],
            "type" : "SCALAR"
        },
        {
            "bufferView" : 18,
            "componentType" : 5126,
            "count" : 26,
            "type" : "VEC4"
        }
    ],
    "bufferViews" : [
        {
            "buffer" : 0,
            "byteLength" : 12732,
            "byteOffset" : 0,
            "target" : 34962
        },
        {
            "buffer" : 0,
            "byteLength" : 8488,
            "byteOffset" : 12732,
            "target" : 34962
        },
        {
            "buffer" : 0,
            "byteLength" : 12732,
            "byteOffset" : 21220,
            "target" : 34962
        },
        {
            "buffer" : 0,
            "byteLength" : 6672,
            "byteOffset" : 33952,
            "target" : 34963
        },
        {
            "buffer" : 0,
            "byteLength" : 14640,
            "byteOffset" : 40624,
            "target" : 34962
        },
        {
            "buffer" : 0,
            "byteLength" : 9760,
            "byteOffset" : 55264,
            "target" : 34962
        },
        {
            "buffer" : 0,
            "byteLength" : 14640,
            "byteOffset" : 65024,
            "target" : 34962
        },
        {
            "buffer" : 0,
            "byteLength" : 11064,
            "byteOffset" : 79664,
            "target" : 34963
        },
        {
            "buffer" : 0,
            "byteLength" : 3444,
            "byteOffset" : 90728,
            "target" : 34962
        },
        {
            "buffer" : 0,
            "byteLength" : 3444,
            "byteOffset" : 94172,
            "target" : 34962
        },
        {
            "buffer" : 0,
            "byteLength" : 1536,
            "byteOffset" : 97616,
            "target" : 34963
        },
        {
            "buffer" : 0,
            "byteLength" : 3444,
            "byteOffset" : 99152,
            "target" : 34962
        },
        {
            "buffer" : 0,
            "byteLength" : 3444,
            "byteOffset" : 102596,
            "target" : 34962
        },
        {
            "buffer" : 0,
            "byteLength" : 1536,
            "byteOffset" : 106040,
            "target" : 34963
        },
        {
            "buffer" : 0,
            "byteLength" : 48,
            "byteOffset" : 107576,
            "target" : 34962
        },
        {
            "buffer" : 0,
            "byteLength" : 48,
            "byteOffset" : 107624,
            "target" : 34962
        },
        {
            "buffer" : 0,
            "byteLength" : 12,
            "byteOffset" : 107672,
            "target" : 34963
        },
        {
            "buffer" : 0,
            "byteLength" : 104,
            "byteOffset" : 107684
        },
        {
            "buffer" : 0,
            "byteLength" : 416,
            "byteOffset" : 107788
        }
    ],
    "buffers" : [
        {
            "byteLength" : 108204,
            "uri" : "data:application/octet-stream;base64,"
        }
    ]
}
